<svg width="25" height="24" viewBox="0 0 25 24" fill="none" xmlns="http://www.w3.org/2000/svg">
<path d="M8.63334 9.29007L12.5133 13.1701L16.3933 9.29007C16.4859 9.19749 16.5958 9.12405 16.7168 9.07394C16.8378 9.02384 16.9674 8.99805 17.0983 8.99805C17.2293 8.99805 17.3589 9.02384 17.4799 9.07394C17.6008 9.12405 17.7108 9.19749 17.8033 9.29007C17.8959 9.38265 17.9694 9.49256 18.0195 9.61352C18.0696 9.73449 18.0954 9.86414 18.0954 9.99507C18.0954 10.126 18.0696 10.2556 18.0195 10.3766C17.9694 10.4976 17.8959 10.6075 17.8033 10.7001L13.2133 15.2901C13.1208 15.3828 13.0109 15.4563 12.89 15.5065C12.769 15.5567 12.6393 15.5825 12.5083 15.5825C12.3774 15.5825 12.2477 15.5567 12.1267 15.5065C12.0057 15.4563 11.8959 15.3828 11.8033 15.2901L7.21334 10.7001C7.12064 10.6076 7.04709 10.4977 6.99691 10.3767C6.94673 10.2557 6.9209 10.126 6.9209 9.99507C6.9209 9.8641 6.94673 9.73442 6.99691 9.61344C7.04709 9.49247 7.12064 9.38258 7.21334 9.29007C7.60334 8.91007 8.24334 8.90007 8.63334 9.29007Z" fill="black"/>
</svg>
