<svg width="32" height="32" viewBox="0 0 32 32" fill="none" xmlns="http://www.w3.org/2000/svg">
<path d="M23.3333 16C25.2783 16 27.1435 16.7726 28.5188 18.1479C29.894 19.5231 30.6667 21.3884 30.6667 23.3333C30.6667 25.2783 29.894 27.1435 28.5188 28.5188C27.1435 29.894 25.2783 30.6667 23.3333 30.6667C21.3884 30.6667 19.5231 29.894 18.1479 28.5188C16.7726 27.1435 16 25.2783 16 23.3333C16 21.3884 16.7726 19.5231 18.1479 18.1479C19.5231 16.7726 21.3884 16 23.3333 16ZM20.032 20.032C19.907 20.157 19.8368 20.3266 19.8368 20.5033C19.8368 20.6801 19.907 20.8496 20.032 20.9747L22.3907 23.3347L20.0347 25.6893C19.9727 25.7512 19.9235 25.8247 19.8899 25.9056C19.8563 25.9865 19.839 26.0733 19.839 26.1609C19.8389 26.2485 19.8561 26.3352 19.8896 26.4162C19.923 26.4971 19.9721 26.5707 20.034 26.6327C20.0959 26.6947 20.1694 26.7438 20.2503 26.7774C20.3312 26.811 20.4179 26.8283 20.5055 26.8284C20.5931 26.8284 20.6799 26.8112 20.7608 26.7778C20.8418 26.7443 20.9153 26.6952 20.9773 26.6333L23.3333 24.2773L25.6933 26.636C25.7548 26.6997 25.8284 26.7505 25.9097 26.7854C25.9911 26.8203 26.0785 26.8387 26.1671 26.8395C26.2556 26.8403 26.3434 26.8234 26.4253 26.7899C26.5072 26.7564 26.5817 26.7069 26.6443 26.6443C26.7069 26.5817 26.7564 26.5072 26.7899 26.4253C26.8234 26.3434 26.8403 26.2556 26.8395 26.1671C26.8387 26.0785 26.8203 25.9911 26.7854 25.9097C26.7505 25.8284 26.6997 25.7548 26.636 25.6933L24.2773 23.3333L26.6387 20.9733C26.7601 20.8476 26.8273 20.6792 26.8258 20.5044C26.8243 20.3296 26.7542 20.1624 26.6305 20.0388C26.5069 19.9152 26.3397 19.8451 26.1649 19.8435C25.9901 19.842 25.8217 19.9092 25.696 20.0307L23.3347 22.3907L20.9747 20.0307C20.8496 19.9057 20.6801 19.8355 20.5033 19.8355C20.3266 19.8355 20.157 19.9057 20.032 20.0307V20.032ZM23.6667 4C24.8159 4 25.9181 4.45655 26.7308 5.2692C27.5435 6.08186 28 7.18406 28 8.33333L28.0013 16.0307C27.378 15.6306 26.7059 15.3124 26.0013 15.084L26 11.3333H6V23.6667C6 24.9547 7.04533 26 8.33333 26H15.0853C15.3147 26.712 15.6347 27.384 16.0307 28.0013L8.33333 28C7.18406 28 6.08186 27.5435 5.2692 26.7308C4.45655 25.9181 4 24.8159 4 23.6667V8.33333C4 7.18406 4.45655 6.08186 5.2692 5.2692C6.08186 4.45655 7.18406 4 8.33333 4H23.6667ZM23.6667 6H8.33333C7.71449 6 7.121 6.24583 6.68342 6.68342C6.24583 7.121 6 7.71449 6 8.33333V9.33333H26V8.33333C26 7.71449 25.7542 7.121 25.3166 6.68342C24.879 6.24583 24.2855 6 23.6667 6Z" fill="#979797"/>
</svg>
