<svg width="30" height="30" viewBox="0 0 30 30" fill="none" xmlns="http://www.w3.org/2000/svg">
<path fill-rule="evenodd" clip-rule="evenodd" d="M15.6382 10.2135C15.6382 7.92252 17.4954 6.06529 19.7864 6.06529C22.0774 6.06529 23.9347 7.92252 23.9347 10.2135C23.9347 12.5045 22.0774 14.3618 19.7864 14.3618C17.4954 14.3618 15.6382 12.5045 15.6382 10.2135ZM19.7864 7.97986C18.5528 7.97986 17.5528 8.97991 17.5528 10.2135C17.5528 11.4471 18.5528 12.4472 19.7864 12.4472C21.0201 12.4472 22.0201 11.4471 22.0201 10.2135C22.0201 8.97991 21.0201 7.97986 19.7864 7.97986ZM28.7659 21.984C29.0402 21.3326 29.2624 20.653 29.4272 19.9504C30.1909 16.6943 30.1909 13.3057 29.4272 10.0496C28.3242 5.34736 24.6526 1.67582 19.9504 0.572831C16.6943 -0.190944 13.3057 -0.190943 10.0496 0.572832C5.34736 1.67582 1.67583 5.34735 0.572833 10.0496C-0.190944 13.3057 -0.190944 16.6943 0.572833 19.9504C0.653818 20.2957 0.748649 20.6354 0.856718 20.9689L1.86303 19.9628C5.50262 16.3239 11.4035 16.3239 15.0431 19.9628L17.8609 22.78L18.5996 22.0415C21.4298 19.2118 25.9729 19.245 28.7659 21.984ZM27.8351 23.8002L27.7941 23.751C25.7934 21.3507 22.1631 21.186 19.9532 23.3954L19.2148 24.1337L23.237 28.1551C25.0968 27.1185 26.6654 25.631 27.7989 23.8366C27.8113 23.8247 27.8233 23.8125 27.8351 23.8002ZM21.3774 29.0032L13.6894 21.3167C10.7975 18.4254 6.10864 18.4254 3.21671 21.3167L1.65325 22.8799C3.33621 26.1398 6.37885 28.5661 10.0496 29.4272C13.3057 30.1909 16.6943 30.1909 19.9504 29.4272C20.4377 29.3129 20.9139 29.171 21.3774 29.0032Z" fill="#F45814"/>
</svg>
