<svg width="34" height="24" viewBox="0 0 34 24" fill="none" xmlns="http://www.w3.org/2000/svg">
<path d="M10.9084 2.92724C10.6977 3.15519 10.4104 3.28348 10.1107 3.28348H9.04275C7.69791 3.28348 6.36264 3.52508 5.09271 3.9982C2.66657 4.90208 0.901004 7.15773 0.496523 9.87019L0.48565 9.94311C0.282453 11.3058 0.282453 12.6942 0.48565 14.0569L0.496523 14.1298C0.901004 16.8422 2.66657 19.0979 5.09271 20.0018C6.36264 20.4749 7.69792 20.7165 9.04275 20.7165H10.1107C10.4104 20.7165 10.6977 20.8448 10.9084 21.0727L11.692 21.9206C14.7115 25.1875 19.9129 23.6422 20.9227 19.1782C21.9899 14.4607 21.9899 9.53924 20.9227 4.82176C19.9129 0.35772 14.7115 -1.18758 11.692 2.07937L10.9084 2.92724Z" fill="#C4C4C4"/>
<path d="M27.958 1.94277C28.4136 1.35925 29.2254 1.28109 29.7712 1.76818C32.1851 3.92234 33.6666 7.77754 33.6666 12C33.6666 16.2225 32.1851 20.0777 29.7712 22.2318C29.2254 22.7189 28.4136 22.6408 27.958 22.0572C27.5023 21.4737 27.5755 20.6058 28.1213 20.1187C29.8119 18.6099 31.0919 15.6189 31.0919 12C31.0919 8.38115 29.8119 5.39006 28.1213 3.88129C27.5755 3.39419 27.5023 2.52628 27.958 1.94277Z" fill="#C4C4C4"/>
<path d="M26.2282 7.18536C25.637 6.76323 24.8376 6.93345 24.4427 7.56556C24.0478 8.19767 24.2071 9.05231 24.7983 9.47444C25.4367 9.93021 25.9424 10.8515 25.9424 12C25.9424 13.1485 25.4367 14.0698 24.7983 14.5256C24.2071 14.9477 24.0478 15.8023 24.4427 16.4344C24.8376 17.0666 25.637 17.2368 26.2282 16.8146C27.6421 15.8053 28.5171 13.988 28.5171 12C28.5171 10.012 27.6421 8.19475 26.2282 7.18536Z" fill="#C4C4C4"/>
</svg>
