<svg width="30" height="30" viewBox="0 0 30 30" fill="none" xmlns="http://www.w3.org/2000/svg">
<path fill-rule="evenodd" clip-rule="evenodd" d="M19.9504 0.572831C16.6943 -0.190944 13.3057 -0.190944 10.0496 0.572832C5.34736 1.67582 1.67583 5.34736 0.572833 10.0496C-0.190944 13.3057 -0.190944 16.6943 0.572833 19.9504C1.67583 24.6527 5.34736 28.3242 10.0496 29.4272C13.3057 30.191 16.6943 30.191 19.9504 29.4272C24.6527 28.3242 28.3242 24.6527 29.4272 19.9504C30.191 16.6943 30.191 13.3057 29.4272 10.0496C28.3242 5.34736 24.6527 1.67582 19.9504 0.572831ZM13.031 8.99156C13.2654 9.22588 13.2654 9.60578 13.031 9.84009L9.84009 13.031C9.72757 13.1436 9.57496 13.2068 9.41583 13.2068C9.2567 13.2068 9.10408 13.1436 8.99156 13.031L7.39609 11.4356C7.16177 11.2013 7.16177 10.8214 7.39609 10.587C7.6304 10.3527 8.0103 10.3527 8.24461 10.587L9.41583 11.7583L12.1825 8.99156C12.4168 8.75725 12.7967 8.75725 13.031 8.99156ZM15.9955 11.809C15.9955 11.4777 16.2641 11.209 16.5955 11.209H22.1796C22.511 11.209 22.7796 11.4777 22.7796 11.809C22.7796 12.1404 22.511 12.409 22.1796 12.409H16.5955C16.2641 12.409 15.9955 12.1404 15.9955 11.809ZM13.031 16.969C13.2654 17.2033 13.2654 17.5832 13.031 17.8175L9.84009 21.0084C9.72757 21.121 9.57496 21.1842 9.41583 21.1842C9.2567 21.1842 9.10408 21.121 8.99156 21.0084L7.39609 19.413C7.16177 19.1786 7.16177 18.7987 7.39609 18.5644C7.6304 18.3301 8.0103 18.3301 8.24461 18.5644L9.41583 19.7356L12.1825 16.969C12.4168 16.7346 12.7967 16.7346 13.031 16.969ZM15.9955 19.7864C15.9955 19.4551 16.2641 19.1864 16.5955 19.1864H22.1796C22.511 19.1864 22.7796 19.4551 22.7796 19.7864C22.7796 20.1178 22.511 20.3864 22.1796 20.3864H16.5955C16.2641 20.3864 15.9955 20.1178 15.9955 19.7864Z" fill="#C4C4C4"/>
</svg>
