<svg width="30" height="30" viewBox="0 0 30 30" fill="none" xmlns="http://www.w3.org/2000/svg">
<path fill-rule="evenodd" clip-rule="evenodd" d="M19.9504 0.572831C16.6943 -0.190944 13.3057 -0.190943 10.0496 0.572832C5.34736 1.67582 1.67583 5.34735 0.572833 10.0496C-0.190944 13.3057 -0.190944 16.6943 0.572833 19.9504C1.67583 24.6527 5.34736 28.3242 10.0496 29.4272C13.3057 30.1909 16.6943 30.1909 19.9504 29.4272C24.6526 28.3242 28.3242 24.6526 29.4272 19.9504C30.1909 16.6943 30.1909 13.3057 29.4272 10.0496C28.3242 5.34736 24.6526 1.67582 19.9504 0.572831ZM16.0365 8.74219C16.7289 8.04979 17.668 7.66081 18.6472 7.66081C20.6862 7.66081 22.3392 9.31379 22.3392 11.3529C22.3392 12.332 21.9502 13.2711 21.2578 13.9635L17.0917 18.1297C15.1578 20.0635 12.7347 21.4355 10.0815 22.0988L9.27625 22.3001C8.32426 22.5381 7.46193 21.6758 7.69993 20.7238L7.90124 19.9185C8.56455 17.2653 9.93649 14.8422 11.8704 12.9083L16.0365 8.74219ZM18.6472 9.57538C18.1757 9.57538 17.7236 9.76265 17.3903 10.096L16.7861 10.7002C16.7265 11.1753 16.9638 11.8385 17.5627 12.4373C18.1616 13.0362 18.8247 13.2735 19.2998 13.2139L19.904 12.6097C20.2374 12.2764 20.4246 11.8243 20.4246 11.3529C20.4246 10.3712 19.6288 9.57538 18.6472 9.57538ZM17.6952 14.8185C17.1261 14.5682 16.6142 14.1965 16.2089 13.7911C15.8035 13.3858 15.4318 12.8739 15.1815 12.3048L13.2242 14.2621C11.5821 15.9042 10.4041 17.9502 9.80785 20.1922C12.0498 19.5959 14.0958 18.4179 15.7379 16.7758L17.6952 14.8185Z" fill="#C4C4C4"/>
</svg>
