<svg width="1440" height="2052" viewBox="0 0 1440 2052" fill="none" xmlns="http://www.w3.org/2000/svg">
<path fill-rule="evenodd" clip-rule="evenodd" d="M399.736 1570.89C275.023 1500.66 190.278 1390.89 102.212 1282.13C-12.5522 1140.38 -199.513 1006.27 -189.654 842.946C-179.826 680.116 26.1948 623.336 148.287 518.811C275.638 409.785 355.305 224.167 539.511 218.7C723.814 213.229 888.696 368.779 1037.06 492.431C1162.02 596.569 1258.87 723.287 1315.5 865.41C1367.52 995.975 1378.04 1132.74 1341.47 1256.4C1307.44 1371.53 1216.93 1453.61 1119.95 1526.81C1025.14 1598.37 921.399 1662.9 792.454 1670.79C659.858 1678.91 522.163 1639.82 399.736 1570.89Z" stroke="#2ca312" stroke-opacity="0.1" stroke-width="3.04896"/>
<path fill-rule="evenodd" clip-rule="evenodd" d="M160.051 1574.38C20.4496 1497.45 -138.384 1447.29 -233.852 1324.52C-340.911 1186.84 -432.095 1013.26 -391.756 864.733C-351.91 718.02 -156.592 685.262 -34.842 591.773C84.1022 500.439 153.781 348.506 312.656 323.834C479.839 297.872 662.394 367.505 819.103 459.161C976.424 551.175 1125.55 676.793 1187.61 835.578C1246.9 987.249 1154.34 1126.36 1139.05 1277.72C1122.32 1443.36 1219.99 1657 1093.89 1763.28C968.063 1869.33 745.438 1800.41 562.749 1763.45C416.432 1733.85 293.391 1647.85 160.051 1574.38Z" stroke="#2ca312" stroke-opacity="0.1" stroke-width="3.04896"/>
</svg>
