<svg width="33" height="32" viewBox="0 0 33 32" fill="none" xmlns="http://www.w3.org/2000/svg">
<path d="M25.8337 5.33301H7.16699C6.10613 5.33301 5.08871 5.75444 4.33857 6.50458C3.58842 7.25473 3.16699 8.27214 3.16699 9.33301V22.6663C3.16699 23.7272 3.58842 24.7446 4.33857 25.4948C5.08871 26.2449 6.10613 26.6663 7.16699 26.6663H25.8337C26.8945 26.6663 27.9119 26.2449 28.6621 25.4948C29.4122 24.7446 29.8337 23.7272 29.8337 22.6663V9.33301C29.8337 8.27214 29.4122 7.25473 28.6621 6.50458C27.9119 5.75444 26.8945 5.33301 25.8337 5.33301ZM25.8337 7.99967L17.167 13.9597C16.9643 14.0767 16.7344 14.1383 16.5003 14.1383C16.2663 14.1383 16.0364 14.0767 15.8337 13.9597L7.16699 7.99967H25.8337Z" fill="#737373"/>
</svg>
