<svg width="25" height="23" viewBox="0 0 25 23" fill="none" xmlns="http://www.w3.org/2000/svg">
<g >
<path d="M2.51343 11C2.51343 16.523 6.99043 21 12.5134 21C18.0364 21 22.5134 16.523 22.5134 11C22.5134 5.477 18.0364 1 12.5134 1C6.99043 1 2.51343 5.477 2.51343 11Z" stroke="black" stroke-width="1.5" stroke-linecap="round" stroke-linejoin="round"/>
<path d="M13.5134 1.05005C13.5134 1.05005 16.5134 5.00005 16.5134 11C16.5134 17 13.5134 20.9501 13.5134 20.9501" stroke="black" stroke-width="1.5" stroke-linecap="round" stroke-linejoin="round"/>
<path d="M11.5134 20.9501C11.5134 20.9501 8.51343 17 8.51343 11C8.51343 5.00005 11.5134 1.05005 11.5134 1.05005" stroke="black" stroke-width="1.5" stroke-linecap="round" stroke-linejoin="round"/>
<path d="M3.14331 14.5H21.8833" stroke="black" stroke-width="1.5" stroke-linecap="round" stroke-linejoin="round"/>
<path d="M3.14331 7.5H21.8833" stroke="black" stroke-width="1.5" stroke-linecap="round" stroke-linejoin="round"/>
</g>
<defs>
<filter id="filter0_d_473_3743" x="-2.23657" y="0.25" width="29.5" height="29.5" filterUnits="userSpaceOnUse" color-interpolation-filters="sRGB">
<feFlood flood-opacity="0" result="BackgroundImageFix"/>
<feColorMatrix in="SourceAlpha" type="matrix" values="0 0 0 0 0 0 0 0 0 0 0 0 0 0 0 0 0 0 127 0" result="hardAlpha"/>
<feOffset dy="4"/>
<feGaussianBlur stdDeviation="2"/>
<feComposite in2="hardAlpha" operator="out"/>
<feColorMatrix type="matrix" values="0 0 0 0 0 0 0 0 0 0 0 0 0 0 0 0 0 0 0.25 0"/>
<feBlend mode="normal" in2="BackgroundImageFix" result="effect1_dropShadow_473_3743"/>
<feBlend mode="normal" in="SourceGraphic" in2="effect1_dropShadow_473_3743" result="shape"/>
</filter>
</defs>
</svg>
