<svg width="32" height="32" viewBox="0 0 32 32" fill="none" xmlns="http://www.w3.org/2000/svg">
<path fill-rule="evenodd" clip-rule="evenodd" d="M21.8812 3.69157L21.8825 4.69107C25.5554 4.97893 27.9815 7.48167 27.9855 11.3198L28 22.5541C28.0052 26.7387 25.3763 29.3134 21.1624 29.3201L10.8692 29.3334C6.68159 29.3387 4.01976 26.7027 4.01449 22.5061L4.00001 11.4037C3.99474 7.54031 6.33537 5.04423 10.0082 4.70706L10.0069 3.70756C10.0056 3.12119 10.44 2.68008 11.0193 2.68008C11.5985 2.67875 12.0329 3.11852 12.0342 3.7049L12.0355 4.63776L19.8552 4.6271L19.8539 3.69424C19.8525 3.10786 20.287 2.66808 20.8662 2.66675C21.4323 2.66542 21.8799 3.1052 21.8812 3.69157ZM6.02864 11.8155L25.9595 11.7889V11.3224C25.9029 8.45719 24.4653 6.95394 21.8851 6.73005L21.8864 7.7562C21.8864 8.32925 21.4402 8.78369 20.8741 8.78369C20.2949 8.78502 19.8591 8.33191 19.8591 7.75887L19.8578 6.67941L12.0382 6.69007L12.0395 7.7682C12.0395 8.34258 11.6064 8.79568 11.0272 8.79568C10.4479 8.79701 10.0122 8.34524 10.0122 7.77086L10.0109 6.74471C7.44381 7.00191 6.02338 8.51049 6.02732 11.401L6.02864 11.8155ZM20.3199 17.8725V17.8871C20.333 18.5002 20.8333 18.9653 21.4402 18.9519C22.0326 18.9373 22.5052 18.4295 22.492 17.8165C22.4644 17.2301 21.9891 16.7517 21.398 16.753C20.7925 16.7664 20.3186 17.2594 20.3199 17.8725ZM21.4073 23.8561C20.8017 23.8428 20.3133 23.3377 20.312 22.7247C20.2988 22.1117 20.7846 21.6039 21.3901 21.5893H21.4033C22.022 21.5893 22.5236 22.0944 22.5236 22.7207C22.5249 23.3471 22.0247 23.8548 21.4073 23.8561ZM14.8962 17.8938C14.9225 18.5068 15.4241 18.9852 16.0296 18.9586C16.622 18.9306 17.0946 18.4242 17.0683 17.8112C17.0538 17.2115 16.5667 16.745 15.9743 16.7464C15.3688 16.773 14.8948 17.2808 14.8962 17.8938ZM16.0349 23.7962C15.4293 23.8228 14.9291 23.3444 14.9014 22.7314C14.9014 22.1183 15.374 21.6119 15.9796 21.5839C16.572 21.5826 17.0604 22.049 17.0735 22.6474C17.1012 23.2618 16.6273 23.7682 16.0349 23.7962ZM9.47244 17.9404C9.49877 18.5535 10.0003 19.0332 10.6059 19.0052C11.1983 18.9786 11.6709 18.4708 11.6432 17.8578C11.6301 17.2581 11.143 16.7917 10.5493 16.793C9.94373 16.8197 9.47112 17.3274 9.47244 17.9404ZM10.6112 23.8028C10.0056 23.8308 9.50535 23.3511 9.47771 22.738C9.47639 22.125 9.95031 21.6173 10.5559 21.5906C11.1483 21.5893 11.6367 22.0557 11.6498 22.6554C11.6775 23.2684 11.2049 23.7762 10.6112 23.8028Z" fill="#979797"/>
</svg>
