<svg width="24" height="28" viewBox="0 0 24 28" fill="none" xmlns="http://www.w3.org/2000/svg">
<path fill-rule="evenodd" clip-rule="evenodd" d="M15.4454 0.0202637C15.5058 0.0202637 15.5651 0.0253532 15.6228 0.0351267L15.8154 0.0363085C16.1025 0.0363085 16.377 0.153126 16.5768 0.360019L23.7055 7.78708C23.8941 7.98271 23.9998 8.2459 23.9998 8.51754V21.4181C24.025 24.9494 21.2749 27.8346 17.738 27.9782L6.4517 27.9796H6.29829C2.85014 27.9017 0.084675 25.113 0.000424809 21.6985L0 6.34023C0.0816315 2.84837 2.96547 0.0363085 6.432 0.0363085L15.268 0.0351267C15.3257 0.0253532 15.3849 0.0202637 15.4454 0.0202637ZM14.3897 2.1469L6.43481 2.14747C4.10269 2.14747 2.16605 4.03625 2.11116 6.36556V21.4181C2.05908 23.8291 3.95913 25.815 6.34614 25.8684H17.6957C20.0448 25.7713 21.9054 23.8192 21.8886 21.4266L21.8885 9.84841L19.0597 9.84982C16.4841 9.84278 14.3898 7.74288 14.3898 5.17008L14.3897 2.1469ZM15.1825 17.7654C15.7651 17.7654 16.238 18.2383 16.238 18.821C16.238 19.4037 15.7651 19.8766 15.1825 19.8766H7.5823C6.99962 19.8766 6.52672 19.4037 6.52672 18.821C6.52672 18.2383 6.99962 17.7654 7.5823 17.7654H15.1825ZM12.3044 12.4847C12.8871 12.4847 13.36 12.9576 13.36 13.5403C13.36 14.1229 12.8871 14.5958 12.3044 14.5958H7.58103C6.99835 14.5958 6.52545 14.1229 6.52545 13.5403C6.52545 12.9576 6.99835 12.4847 7.58103 12.4847H12.3044ZM16.5008 3.33056L16.501 5.17008C16.501 6.58315 17.6508 7.73444 19.0625 7.73866L20.7316 7.73725L16.5008 3.33056Z" fill="#979797"/>
</svg>
