<svg width="16" height="17" viewBox="0 0 16 17" fill="none" xmlns="http://www.w3.org/2000/svg">
<path fill-rule="evenodd" clip-rule="evenodd" d="M8 15.25C6.20979 15.25 4.4929 14.5388 3.22703 13.273C1.96116 12.0071 1.25 10.2902 1.25 8.5C1.25 6.70979 1.96116 4.9929 3.22703 3.72703C4.4929 2.46116 6.20979 1.75 8 1.75C9.79021 1.75 11.5071 2.46116 12.773 3.72703C14.0388 4.9929 14.75 6.70979 14.75 8.5C14.75 10.2902 14.0388 12.0071 12.773 13.273C11.5071 14.5388 9.79021 15.25 8 15.25ZM8 16.5C5.87827 16.5 3.84344 15.6571 2.34314 14.1569C0.842854 12.6566 -4.42435e-07 10.6217 -3.49691e-07 8.5C-2.56947e-07 6.37827 0.842854 4.34344 2.34315 2.84315C3.84344 1.34285 5.87827 0.5 8 0.5C10.1217 0.5 12.1566 1.34285 13.6569 2.84315C15.1571 4.34344 16 6.37827 16 8.5C16 10.6217 15.1571 12.6566 13.6569 14.1569C12.1566 15.6571 10.1217 16.5 8 16.5ZM10.47 7.97L8.75 9.69L8.75 4.5L7.25 4.5L7.25 9.69L5.53 7.97L4.47 9.03L7.47 12.03C7.61062 12.1704 7.80125 12.2493 8 12.2493C8.19875 12.2493 8.38937 12.1704 8.53 12.03L11.53 9.03L10.47 7.97Z" fill="white"/>
</svg>
